/* XPM */
static char * hide_active_xpm[] = {
"24 26 35 1",
" 	c None",
".	c #CED1D8",
"+	c #CDD0D7",
"@	c #CCCFD6",
"#	c #CBCED5",
"$	c #CACDD4",
"%	c #C9CCD3",
"&	c #C8CBD2",
"*	c #C7CAD1",
"=	c #C6C9D0",
"-	c #C5C8CF",
";	c #C4C7CE",
">	c #C3C6CD",
",	c #C2C5CC",
"'	c #A7A9AF",
")	c #555658",
"!	c #A3A6AB",
"~	c #C1C4CB",
"{	c #AAACB2",
"]	c #666669",
"^	c #656568",
"/	c #A6A9AE",
"(	c #C0C3CA",
"_	c #BDC0C7",
":	c #B6B9BF",
"<	c #BFC2C9",
"[	c #BEC1C8",
"}	c #BCBFC6",
"|	c #BBBEC5",
"1	c #BABDC4",
"2	c #B9BCC3",
"3	c #B8BBC2",
"4	c #B7BAC1",
"5	c #B6B9C0",
"6	c #B5B8BF",
"........................",
"++++++++++++++++++++++++",
"@@@@@@@@@@@@@@@@@@@@@@@@",
"########################",
"$$$$$$$$$$$$$$$$$$$$$$$$",
"%%%%%%%%%%%%%%%%%%%%%%%%",
"&&&&&&&&&&&&&&&&&&&&&&&&",
"************************",
"========================",
"------------------------",
";;;;;;;;;;;;;;;;;;;;;;;;",
">>>>>>>>>>>>>>>>>>>>>>>>",
",,,,,,,'))))))))!,,,,,,,",
"~~~~~~~{]]]]^^^^/~~~~~~~",
"(((((((_::::::::_(((((((",
"<<<<<<<<<<<<<<<<<<<<<<<<",
"[[[[[[[[[[[[[[[[[[[[[[[[",
"________________________",
"}}}}}}}}}}}}}}}}}}}}}}}}",
"||||||||||||||||||||||||",
"111111111111111111111111",
"222222222222222222222222",
"333333333333333333333333",
"444444444444444444444444",
"555555555555555555555555",
"666666666666666666666666"};
