/* XPM */
static char * hide_pressed_xpm[] = {
"24 26 85 1",
" 	c None",
".	c #CED1D8",
"+	c #CDD0D7",
"@	c #CCCFD6",
"#	c #CBCED5",
"$	c #CACDD4",
"%	c #C9CCD3",
"&	c #AEB1B7",
"*	c #6E7074",
"=	c #47484A",
"-	c #2E2E30",
";	c #313233",
">	c #ADB0B6",
",	c #C8CBD2",
"'	c #C3C5CC",
")	c #6F7074",
"!	c #2D2D2F",
"~	c #2B2C2D",
"{	c #6E6F73",
"]	c #C3C6CD",
"^	c #C7CAD1",
"/	c #C2C4CB",
"(	c #545659",
"_	c #56575A",
":	c #C2C5CC",
"<	c #C6C9D0",
"[	c #6B6D71",
"}	c #2B2B2D",
"|	c #6F7175",
"1	c #C5C8CF",
"2	c #AAADB3",
"3	c #2A2B2D",
"4	c #2C2D2E",
"5	c #ACAEB4",
"6	c #C4C7CE",
"7	c #6C6D71",
"8	c #2A2B2C",
"9	c #6C6E72",
"0	c #444548",
"a	c #2E2F30",
"b	c #404142",
"c	c #323234",
"d	c #46474A",
"e	c #2F3032",
"f	c #2A2A2C",
"g	c #4B4C4D",
"h	c #D1D1D2",
"i	c #626364",
"j	c #313133",
"k	c #C1C4CB",
"l	c #2F3031",
"m	c #4B4B4D",
"n	c #313234",
"o	c #C0C3CA",
"p	c #444547",
"q	c #292A2C",
"r	c #BFC2C9",
"s	c #696B6E",
"t	c #292A2B",
"u	c #6A6C70",
"v	c #BEC1C8",
"w	c #A5A7AD",
"x	c #A6A9AF",
"y	c #BDC0C7",
"z	c #696B6F",
"A	c #29292B",
"B	c #6B6C70",
"C	c #BCBFC6",
"D	c #B8BBC1",
"E	c #515255",
"F	c #525356",
"G	c #BBBEC5",
"H	c #B7BAC0",
"I	c #67696D",
"J	c #28292A",
"K	c #6A6B6F",
"L	c #BABDC4",
"M	c #A2A5AB",
"N	c #68696D",
"O	c #434447",
"P	c #B9BCC3",
"Q	c #B8BBC2",
"R	c #B7BAC1",
"S	c #B6B9C0",
"T	c #B5B8BF",
"........................",
"++++++++++++++++++++++++",
"@@@@@@@@@@@@@@@@@@@@@@@@",
"########################",
"$$$$$$$$$$$$$$$$$$$$$$$$",
"%%%%%%%%&*=-;=*>%%%%%%%%",
",,,,,,')!~~~~~~!{],,,,,,",
"^^^^^/(~~~~~~~~~~_:^^^^^",
"<<<<<[}}}}}}}}}}}}|<<<<<",
"11112~333333333333451111",
"666678888888888888896666",
"]]]]088abbbbbbbbc88d]]]]",
"::::effghhhhhhhhiffj::::",
"kkkklffmhhhhhhhhiffnkkkk",
"oooopqqqqqqqqqqqqqqdoooo",
"rrrrstttttttttttttturrrr",
"vvvvw3tttttttttttt3xvvvv",
"yyyyyzAAAAAAAAAAAAByyyyy",
"CCCCCDEAAAAAAAAAAFDCCCCC",
"GGGGGGHIfJJJJJJfKHGGGGGG",
"LLLLLLLLMNOccpNMLLLLLLLL",
"PPPPPPPPPPPPPPPPPPPPPPPP",
"QQQQQQQQQQQQQQQQQQQQQQQQ",
"RRRRRRRRRRRRRRRRRRRRRRRR",
"SSSSSSSSSSSSSSSSSSSSSSSS",
"TTTTTTTTTTTTTTTTTTTTTTTT"};
