/* XPM */
static char * close_inactive_xpm[] = {
"24 26 133 2",
"  	c None",
". 	c #CED1D8",
"+ 	c #C6C8CF",
"@ 	c #CDD0D7",
"# 	c #CCCFD6",
"$ 	c #CBCED5",
"% 	c #CACDD4",
"& 	c #CCACB3",
"* 	c #CE7981",
"= 	c #CF5C65",
"- 	c #CF4952",
"; 	c #CF5058",
"> 	c #CE7982",
", 	c #CCABB3",
"' 	c #C9CCD3",
") 	c #CABAC1",
"! 	c #CE6770",
"~ 	c #CF464F",
"{ 	c #CE666F",
"] 	c #C9B9C0",
"^ 	c #C8CBD2",
"/ 	c #C9ADB4",
"( 	c #CF4D56",
"_ 	c #CF464E",
": 	c #CF4E57",
"< 	c #C9AEB5",
"[ 	c #C7CAD1",
"} 	c #C8B7BE",
"| 	c #CE4D56",
"1 	c #C8B9C0",
"2 	c #C6C9D0",
"3 	c #CD646D",
"4 	c #CE454E",
"5 	c #D04D56",
"6 	c #CC666E",
"7 	c #C5C8CF",
"8 	c #C8A6AE",
"9 	c #CE454D",
"0 	c #DC7C81",
"a 	c #F3D5D6",
"b 	c #D66067",
"c 	c #D35960",
"d 	c #F2CFD2",
"e 	c #E08A8F",
"f 	c #C7A9B0",
"g 	c #C4C7CE",
"h 	c #CA767E",
"i 	c #D14E56",
"j 	c #F4D6D7",
"k 	c #F8E4E5",
"l 	c #F3D3D5",
"m 	c #D45B62",
"n 	c #F3D1D3",
"o 	c #F6DADC",
"p 	c #D1525A",
"q 	c #CA777F",
"r 	c #C3C6CD",
"s 	c #CC5961",
"t 	c #CD444D",
"u 	c #D55F66",
"v 	c #F3D0D3",
"w 	c #F5D8D9",
"x 	c #D6656C",
"y 	c #CB5B63",
"z 	c #C2C5CC",
"A 	c #CD4952",
"B 	c #CD444C",
"C 	c #D2585F",
"D 	c #F4D5D7",
"E 	c #D56168",
"F 	c #CD4A53",
"G 	c #C1C4CB",
"H 	c #CC4851",
"I 	c #D2555C",
"J 	c #F1CBCE",
"K 	c #D35A61",
"L 	c #CB4B53",
"M 	c #C0C3CA",
"N 	c #CB5860",
"O 	c #CC434C",
"P 	c #D1575F",
"Q 	c #F1CED0",
"R 	c #F3D4D6",
"S 	c #D35C63",
"T 	c #CA5962",
"U 	c #BFC2C9",
"V 	c #C7737B",
"W 	c #CC434B",
"X 	c #CF4C54",
"Y 	c #F2D0D2",
"Z 	c #F4D7D9",
"` 	c #D35F66",
" .	c #D35B62",
"..	c #D05159",
"+.	c #C7747D",
"@.	c #BEC1C8",
"#.	c #C1A2A9",
"$.	c #DF8A8F",
"%.	c #F5DADB",
"&.	c #D4636A",
"*.	c #D25B62",
"=.	c #E3989D",
"-.	c #C1A3AA",
";.	c #BDC0C7",
">.	c #C8616A",
",.	c #CB424B",
"'.	c #CF5159",
").	c #D0525A",
"!.	c #C8636A",
"~.	c #BCBFC6",
"{.	c #BEAEB5",
"].	c #CA4951",
"^.	c #CB424A",
"/.	c #CA4952",
"(.	c #BBBEC5",
"_.	c #BFA2A9",
":.	c #BFA3AA",
"<.	c #BABDC4",
"[.	c #BBABB3",
"}.	c #C66068",
"|.	c #CA414A",
"1.	c #BCADB4",
"2.	c #B9BCC3",
"3.	c #BD9EA5",
"4.	c #C37078",
"5.	c #C7565E",
"6.	c #C94952",
"7.	c #C37179",
"8.	c #BD9FA5",
"9.	c #B8BBC2",
"0.	c #B7BAC1",
"a.	c #B6B9C0",
"b.	c #B5B8BF",
". . . . . . . . . . . . . . . . . . . . . . . + ",
"@ @ @ @ @ @ @ @ @ @ @ @ @ @ @ @ @ @ @ @ @ @ @ @ ",
"# # # # # # # # # # # # # # # # # # # # # # # # ",
"$ $ $ $ $ $ $ $ $ $ $ $ $ $ $ $ $ $ $ $ $ $ $ $ ",
"% % % % % % % % & * = - ; = > , % % % % % % % % ",
"' ' ' ' ' ' ) ! ~ ~ ~ ~ ~ ~ ~ ~ { ] ' ' ' ' ' ' ",
"^ ^ ^ ^ ^ / ( _ _ _ _ _ _ _ _ _ _ : < ^ ^ ^ ^ ^ ",
"[ [ [ [ } | _ _ _ _ _ _ _ _ _ _ _ _ | 1 [ [ [ [ ",
"2 2 2 + 3 4 4 4 4 5 4 4 4 4 5 4 4 4 4 6 2 2 2 2 ",
"7 7 7 8 9 9 9 9 0 a b 9 9 c d e 9 9 9 9 f 7 7 7 ",
"g g g h 9 9 9 i j k l m c n k o p 9 9 9 q g g g ",
"r r r s t t t t u a k v v k w x t t t t y r r r ",
"z z z A B B B B B C d k k D E B B B B B F z z z ",
"G G G H B B B B B I J k k v K B B B B B L G G G ",
"M M M N O O O O P Q k R n k l S O O O O T M M M ",
"U U U V W W W X Y k Z `  .R k D ..W W W +.U U U ",
"@.@.@.#.W W W W $.%.&.W W *.R =.W W W W -.@.@.@.",
";.;.;.;.>.,.,.,.,.'.,.,.,.,.).,.,.,.,.!.;.;.;.;.",
"~.~.~.~.{.].^.^.^.^.^.^.^.^.^.^.^.^./.{.~.~.~.~.",
"(.(.(.(.(._./.^.^.^.^.^.^.^.^.^.^./.:.(.(.(.(.(.",
"<.<.<.<.<.<.[.}.|.|.|.|.|.|.|.|.}.1.<.<.<.<.<.<.",
"2.2.2.2.2.2.2.2.3.4.5.6.6.5.7.8.2.2.2.2.2.2.2.2.",
"9.9.9.9.9.9.9.9.9.9.9.9.9.9.9.9.9.9.9.9.9.9.9.9.",
"0.0.0.0.0.0.0.0.0.0.0.0.0.0.0.0.0.0.0.0.0.0.0.0.",
"a.a.a.a.a.a.a.a.a.a.a.a.a.a.a.a.a.a.a.a.a.a.a.a.",
"b.b.b.b.b.b.b.b.b.b.b.b.b.b.b.b.b.b.b.b.b.b.b.b."};
