/* XPM */
static char * maximize_inactive_xpm[] = {
"24 26 47 1",
" 	c None",
".	c #CED1D8",
"+	c #CDD0D7",
"@	c #CCCFD6",
"#	c #CBCED5",
"$	c #CACDD4",
"%	c #C9CCD3",
"&	c #C8CBD2",
"*	c #C7CAD1",
"=	c #C6C9D0",
"-	c #C5C8CF",
";	c #AAADB3",
">	c #C4C7CE",
",	c #BEC1C8",
"'	c #3B3C3E",
")	c #B9BCC3",
"!	c #BDC0C7",
"~	c #3A3B3D",
"{	c #B8BBC2",
"]	c #C3C6CD",
"^	c #454648",
"/	c #B9BBC2",
"(	c #C2C5CC",
"_	c #A7A9AF",
":	c #555658",
"<	c #A3A6AB",
"[	c #C1C4CB",
"}	c #AAACB2",
"|	c #666669",
"1	c #656568",
"2	c #A6A9AE",
"3	c #C0C3CA",
"4	c #B6B9BF",
"5	c #B3B6BC",
"6	c #757678",
"7	c #B0B3B9",
"8	c #BFC2C9",
"9	c #BCBFC6",
"0	c #7F8082",
"a	c #BABDC3",
"b	c #BBBEC5",
"c	c #B9BCC2",
"d	c #A8AAAF",
"e	c #BABDC4",
"f	c #B7BAC1",
"g	c #B6B9C0",
"h	c #B5B8BF",
"........................",
"++++++++++++++++++++++++",
"@@@@@@@@@@@@@@@@@@@@@@@@",
"########################",
"$$$$$$$$$$$$$$$$$$$$$$$$",
"%%%%%%%%%%%%%%%%%%%%%%%%",
"&&&&&&&&&&&&&&&&&&&&&&&&",
"************************",
"==========-;;>==========",
"----------,'')----------",
">>>>>>>>>>!~~{>>>>>>>>>>",
"]]]]]]]]]]!^^/]]]]]]]]]]",
"(((((((_::::::::<(((((((",
"[[[[[[[}||||11112[[[[[[[",
"3333333!44566744!3333333",
"8888888888900a8888888888",
",,,,,,,,,,b00c,,,,,,,,,,",
"!!!!!!!!!!9ddb!!!!!!!!!!",
"999999999999999999999999",
"bbbbbbbbbbbbbbbbbbbbbbbb",
"eeeeeeeeeeeeeeeeeeeeeeee",
"))))))))))))))))))))))))",
"{{{{{{{{{{{{{{{{{{{{{{{{",
"ffffffffffffffffffffffff",
"gggggggggggggggggggggggg",
"hhhhhhhhhhhhhhhhhhhhhhhh"};
