/* XPM */
static char * menu_pressed_xpm[] = {
"24 26 92 2",
"  	c None",
". 	c #CED1D8",
"+ 	c #CDD0D7",
"@ 	c #CCCFD6",
"# 	c #CBCED5",
"$ 	c #CACDD4",
"% 	c #C9CCD3",
"& 	c #AEB1B7",
"* 	c #6E7074",
"= 	c #47484A",
"- 	c #2E2E30",
"; 	c #313233",
"> 	c #ADB0B6",
", 	c #C8CBD2",
"' 	c #C3C5CC",
") 	c #6F7074",
"! 	c #2D2D2F",
"~ 	c #2B2C2D",
"{ 	c #6E6F73",
"] 	c #C3C6CD",
"^ 	c #C7CAD1",
"/ 	c #C2C4CB",
"( 	c #545659",
"_ 	c #56575A",
": 	c #C2C5CC",
"< 	c #C6C9D0",
"[ 	c #6B6D71",
"} 	c #2B2B2D",
"| 	c #6F7175",
"1 	c #C5C8CF",
"2 	c #AAADB3",
"3 	c #2A2B2D",
"4 	c #2C2D2E",
"5 	c #ACAEB4",
"6 	c #C4C7CE",
"7 	c #6C6D71",
"8 	c #2A2B2C",
"9 	c #6C6E72",
"0 	c #444548",
"a 	c #292A2B",
"b 	c #46474A",
"c 	c #2F3032",
"d 	c #2A2A2C",
"e 	c #9F9F9F",
"f 	c #9E9E9E",
"g 	c #313133",
"h 	c #C1C4CB",
"i 	c #2F3031",
"j 	c #908F8F",
"k 	c #8F8F8F",
"l 	c #8E8E8E",
"m 	c #8D8E8E",
"n 	c #8D8D8D",
"o 	c #8C8C8C",
"p 	c #313234",
"q 	c #C0C3CA",
"r 	c #444547",
"s 	c #292A2C",
"t 	c #7C7C7D",
"u 	c #7B7C7C",
"v 	c #7B7B7B",
"w 	c #BFC2C9",
"x 	c #696B6E",
"y 	c #6A696A",
"z 	c #696869",
"A 	c #6A6C70",
"B 	c #BEC1C8",
"C 	c #A5A7AD",
"D 	c #A6A9AF",
"E 	c #BDC0C7",
"F 	c #696B6F",
"G 	c #29292B",
"H 	c #6B6C70",
"I 	c #BCBFC6",
"J 	c #B8BBC1",
"K 	c #515255",
"L 	c #525356",
"M 	c #BBBEC5",
"N 	c #B7BAC0",
"O 	c #67696D",
"P 	c #28292A",
"Q 	c #6A6B6F",
"R 	c #BABDC4",
"S 	c #A2A5AB",
"T 	c #68696D",
"U 	c #434447",
"V 	c #323234",
"W 	c #B9BCC3",
"X 	c #B8BBC2",
"Y 	c #B7BAC1",
"Z 	c #B6B9C0",
"` 	c #B5B8BF",
". . . . . . . . . . . . . . . . . . . . . . . . ",
"+ + + + + + + + + + + + + + + + + + + + + + + + ",
"@ @ @ @ @ @ @ @ @ @ @ @ @ @ @ @ @ @ @ @ @ @ @ @ ",
"# # # # # # # # # # # # # # # # # # # # # # # # ",
"$ $ $ $ $ $ $ $ $ $ $ $ $ $ $ $ $ $ $ $ $ $ $ $ ",
"% % % % % % % % & * = - ; = * > % % % % % % % % ",
", , , , , , ' ) ! ~ ~ ~ ~ ~ ~ ! { ] , , , , , , ",
"^ ^ ^ ^ ^ / ( ~ ~ ~ ~ ~ ~ ~ ~ ~ ~ _ : ^ ^ ^ ^ ^ ",
"< < < < < [ } } } } } } } } } } } } | < < < < < ",
"1 1 1 1 2 ~ 3 3 3 3 3 3 3 3 3 3 3 3 4 5 1 1 1 1 ",
"6 6 6 6 7 8 8 8 8 8 8 8 8 8 8 8 8 8 8 9 6 6 6 6 ",
"] ] ] ] 0 8 8 a a a a a a a a a a 8 8 b ] ] ] ] ",
": : : : c d d a e e e e e e e f a d d g : : : : ",
"h h h h i d d a a j k l m n o a a d d p h h h h ",
"q q q q r s s s s s t u v v s s s s s b q q q q ",
"w w w w x a a a a a a y z a a a a a a A w w w w ",
"B B B B C 3 a a a a a a a a a a a a 3 D B B B B ",
"E E E E E F G G G G G G G G G G G G H E E E E E ",
"I I I I I J K G G G G G G G G G G L J I I I I I ",
"M M M M M M N O d P P P P P P d Q N M M M M M M ",
"R R R R R R R R S T U V V r T S R R R R R R R R ",
"W W W W W W W W W W W W W W W W W W W W W W W W ",
"X X X X X X X X X X X X X X X X X X X X X X X X ",
"Y Y Y Y Y Y Y Y Y Y Y Y Y Y Y Y Y Y Y Y Y Y Y Y ",
"Z Z Z Z Z Z Z Z Z Z Z Z Z Z Z Z Z Z Z Z Z Z Z Z ",
"` ` ` ` ` ` ` ` ` ` ` ` ` ` ` ` ` ` ` ` ` ` ` ` "};
