/* XPM */
static char * shade_inactive_xpm[] = {
"24 26 53 1",
" 	c None",
".	c #CED1D8",
"+	c #CDD0D7",
"@	c #CCCFD6",
"#	c #CBCED5",
"$	c #CACDD4",
"%	c #C9CCD3",
"&	c #C8CBD2",
"*	c #C7CAD1",
"=	c #C6C9D0",
"-	c #C5C8CF",
";	c #5A5A5A",
">	c #C4C7CE",
",	c #646363",
"'	c #636364",
")	c #646464",
"!	c #C3C6CD",
"~	c #6C6D6D",
"{	c #6D6D6D",
"]	c #6E6E6D",
"^	c #6E6D6E",
"/	c #6E6E6E",
"(	c #C2C5CC",
"_	c #777776",
":	c #767777",
"<	c #777777",
"[	c #787777",
"}	c #787878",
"|	c #C1C4CB",
"1	c #C0C3CA",
"2	c #8B8B8B",
"3	c #8B8C8B",
"4	c #8C8B8C",
"5	c #8C8C8C",
"6	c #8D8C8C",
"7	c #BFC2C9",
"8	c #959595",
"9	c #969595",
"0	c #959696",
"a	c #969695",
"b	c #969596",
"c	c #969696",
"d	c #969796",
"e	c #BEC1C8",
"f	c #BDC0C7",
"g	c #BCBFC6",
"h	c #BBBEC5",
"i	c #BABDC4",
"j	c #B9BCC3",
"k	c #B8BBC2",
"l	c #B7BAC1",
"m	c #B6B9C0",
"n	c #B5B8BF",
"........................",
"++++++++++++++++++++++++",
"@@@@@@@@@@@@@@@@@@@@@@@@",
"########################",
"$$$$$$$$$$$$$$$$$$$$$$$$",
"%%%%%%%%%%%%%%%%%%%%%%%%",
"&&&&&&&&&&&&&&&&&&&&&&&&",
"************************",
"========================",
"-----------;;-----------",
">>>>>>>>>>,'')>>>>>>>>>>",
"!!!!!!!!!~{]^^/!!!!!!!!!",
"((((((((_:<[}}}}((((((((",
"||||||||||||||||||||||||",
"111111112232445611111111",
"777777778890abcd77777777",
"eeeeeeeeeeeeeeeeeeeeeeee",
"ffffffffffffffffffffffff",
"gggggggggggggggggggggggg",
"hhhhhhhhhhhhhhhhhhhhhhhh",
"iiiiiiiiiiiiiiiiiiiiiiii",
"jjjjjjjjjjjjjjjjjjjjjjjj",
"kkkkkkkkkkkkkkkkkkkkkkkk",
"llllllllllllllllllllllll",
"mmmmmmmmmmmmmmmmmmmmmmmm",
"nnnnnnnnnnnnnnnnnnnnnnnn"};
