/* XPM */
static char * stick_pressed_xpm[] = {
"24 26 103 2",
"  	c None",
". 	c #CED1D8",
"+ 	c #CDD0D7",
"@ 	c #CCCFD6",
"# 	c #CBCED5",
"$ 	c #CACDD4",
"% 	c #C9CCD3",
"& 	c #AEB1B7",
"* 	c #6E7074",
"= 	c #47484A",
"- 	c #2E2E30",
"; 	c #313233",
"> 	c #ADB0B6",
", 	c #C8CBD2",
"' 	c #C3C5CC",
") 	c #6F7074",
"! 	c #2D2D2F",
"~ 	c #2B2C2D",
"{ 	c #6E6F73",
"] 	c #C3C6CD",
"^ 	c #C7CAD1",
"/ 	c #C2C4CB",
"( 	c #545659",
"_ 	c #56575A",
": 	c #C2C5CC",
"< 	c #C6C9D0",
"[ 	c #6B6D71",
"} 	c #2B2B2D",
"| 	c #6F7175",
"1 	c #C5C8CF",
"2 	c #AAADB3",
"3 	c #2A2B2D",
"4 	c #2C2D2E",
"5 	c #ACAEB4",
"6 	c #C4C7CE",
"7 	c #6C6D71",
"8 	c #2A2B2C",
"9 	c #49494A",
"0 	c #908F8F",
"a 	c #8F8F90",
"b 	c #6C6E72",
"c 	c #444548",
"d 	c #292A2B",
"e 	c #444546",
"f 	c #999999",
"g 	c #46474A",
"h 	c #2F3032",
"i 	c #2A2A2C",
"j 	c #7C7C7D",
"k 	c #8D8D8D",
"l 	c #8E8D8D",
"m 	c #8D8E8D",
"n 	c #7C7D7C",
"o 	c #313133",
"p 	c #C1C4CB",
"q 	c #2F3031",
"r 	c #737373",
"s 	c #828282",
"t 	c #828182",
"u 	c #818282",
"v 	c #727373",
"w 	c #313234",
"x 	c #C0C3CA",
"y 	c #444547",
"z 	c #292A2C",
"A 	c #393A3B",
"B 	c #767776",
"C 	c #767676",
"D 	c #777677",
"E 	c #39393B",
"F 	c #BFC2C9",
"G 	c #696B6E",
"H 	c #353536",
"I 	c #5F5F5F",
"J 	c #5F5E5F",
"K 	c #353636",
"L 	c #6A6C70",
"M 	c #BEC1C8",
"N 	c #A5A7AD",
"O 	c #A6A9AF",
"P 	c #BDC0C7",
"Q 	c #696B6F",
"R 	c #29292B",
"S 	c #6B6C70",
"T 	c #BCBFC6",
"U 	c #B8BBC1",
"V 	c #515255",
"W 	c #525356",
"X 	c #BBBEC5",
"Y 	c #B7BAC0",
"Z 	c #67696D",
"` 	c #28292A",
" .	c #6A6B6F",
"..	c #BABDC4",
"+.	c #A2A5AB",
"@.	c #68696D",
"#.	c #434447",
"$.	c #323234",
"%.	c #B9BCC3",
"&.	c #B8BBC2",
"*.	c #B7BAC1",
"=.	c #B6B9C0",
"-.	c #B5B8BF",
". . . . . . . . . . . . . . . . . . . . . . . . ",
"+ + + + + + + + + + + + + + + + + + + + + + + + ",
"@ @ @ @ @ @ @ @ @ @ @ @ @ @ @ @ @ @ @ @ @ @ @ @ ",
"# # # # # # # # # # # # # # # # # # # # # # # # ",
"$ $ $ $ $ $ $ $ $ $ $ $ $ $ $ $ $ $ $ $ $ $ $ $ ",
"% % % % % % % % & * = - ; = * > % % % % % % % % ",
", , , , , , ' ) ! ~ ~ ~ ~ ~ ~ ! { ] , , , , , , ",
"^ ^ ^ ^ ^ / ( ~ ~ ~ ~ ~ ~ ~ ~ ~ ~ _ : ^ ^ ^ ^ ^ ",
"< < < < < [ } } } } } } } } } } } } | < < < < < ",
"1 1 1 1 2 ~ 3 3 3 3 3 3 3 3 3 3 3 3 4 5 1 1 1 1 ",
"6 6 6 6 7 8 8 8 8 8 9 0 a 9 8 8 8 8 8 b 6 6 6 6 ",
"] ] ] ] c 8 8 d d e f f f f e d d 8 8 g ] ] ] ] ",
": : : : h i i d d j k k l m n d d i i o : : : : ",
"p p p p q i i d d r s t u s v d d i i w p p p p ",
"x x x x y z z z z A B C C D E z z z z g x x x x ",
"F F F F G d d d d d H I J K d d d d d L F F F F ",
"M M M M N 3 d d d d d d d d d d d d 3 O M M M M ",
"P P P P P Q R R R R R R R R R R R R S P P P P P ",
"T T T T T U V R R R R R R R R R R W U T T T T T ",
"X X X X X X Y Z i ` ` ` ` ` ` i  .Y X X X X X X ",
"................+.@.#.$.$.y @.+.................",
"%.%.%.%.%.%.%.%.%.%.%.%.%.%.%.%.%.%.%.%.%.%.%.%.",
"&.&.&.&.&.&.&.&.&.&.&.&.&.&.&.&.&.&.&.&.&.&.&.&.",
"*.*.*.*.*.*.*.*.*.*.*.*.*.*.*.*.*.*.*.*.*.*.*.*.",
"=.=.=.=.=.=.=.=.=.=.=.=.=.=.=.=.=.=.=.=.=.=.=.=.",
"-.-.-.-.-.-.-.-.-.-.-.-.-.-.-.-.-.-.-.-.-.-.-.-."};
