/* XPM */
static char * close_prelight_xpm[] = {
"24 26 126 2",
"  	c None",
". 	c #CED1D8",
"+ 	c #C6C8CF",
"@ 	c #CDD0D7",
"# 	c #CCCFD6",
"$ 	c #CBCED5",
"% 	c #CACDD4",
"& 	c #CBA2A9",
"* 	c #CF5D65",
"= 	c #D13841",
"- 	c #D11F28",
"; 	c #D22730",
"> 	c #CF5E66",
", 	c #CCA1A8",
"' 	c #C9CCD3",
") 	c #CAB4BB",
"! 	c #D04750",
"~ 	c #D21B24",
"{ 	c #D0464E",
"] 	c #CBB3BA",
"^ 	c #C8CBD2",
"/ 	c #CBA3AB",
"( 	c #D1242D",
"_ 	c #D1252F",
": 	c #CAA4AC",
"< 	c #C7CAD1",
"[ 	c #C9B1B8",
"} 	c #D1242E",
"| 	c #C8B3BA",
"1 	c #C6C9D0",
"2 	c #CF444C",
"3 	c #D11B24",
"4 	c #D4252E",
"5 	c #CF464F",
"6 	c #C5C8CF",
"7 	c #C89BA3",
"8 	c #DF5E64",
"9 	c #F5CBCD",
"0 	c #D73B43",
"a 	c #D6333A",
"b 	c #F4C5C7",
"c 	c #E26E74",
"d 	c #C89EA6",
"e 	c #C4C7CE",
"f 	c #CC5B64",
"g 	c #D11B23",
"h 	c #D3252E",
"i 	c #F5CCCE",
"j 	c #F9DEDF",
"k 	c #F4C9CB",
"l 	c #D6353D",
"m 	c #D6333B",
"n 	c #F3C6C8",
"o 	c #F6D1D4",
"p 	c #D42B33",
"q 	c #CC5D65",
"r 	c #C3C6CD",
"s 	c #CF353E",
"t 	c #D11A23",
"u 	c #D73B42",
"v 	c #F4C6C8",
"w 	c #F5CFD2",
"x 	c #D8424A",
"y 	c #CE3841",
"z 	c #C2C5CC",
"A 	c #D1212A",
"B 	c #D83D45",
"C 	c #CF222B",
"D 	c #C1C4CB",
"E 	c #D12029",
"F 	c #D42F37",
"G 	c #F2C0C2",
"H 	c #D0232D",
"I 	c #C0C3CA",
"J 	c #CF363E",
"K 	c #D6323A",
"L 	c #F3C3C5",
"M 	c #F3C7C9",
"N 	c #D73840",
"O 	c #BFC2C9",
"P 	c #CA5961",
"Q 	c #D01A23",
"R 	c #D2242D",
"S 	c #F5CED1",
"T 	c #D83C44",
"U 	c #D6373F",
"V 	c #D32B32",
"W 	c #CA5B64",
"X 	c #BEC1C8",
"Y 	c #C298A0",
"Z 	c #E27075",
"` 	c #F6D2D4",
" .	c #D84149",
"..	c #D63840",
"+.	c #E68287",
"@.	c #C29AA2",
"#.	c #BDC0C7",
"$.	c #CC434B",
"%.	c #D42C34",
"&.	c #CB444C",
"*.	c #BCBFC6",
"=.	c #BFA9B0",
"-.	c #CF222C",
";.	c #D01922",
">.	c #CF232C",
",.	c #BBBEC5",
"'.	c #C099A1",
").	c #CE232C",
"!.	c #BF9AA2",
"~.	c #BABDC4",
"{.	c #BDA6AD",
"].	c #CB424A",
"^.	c #CA424A",
"/.	c #BDA8AF",
"(.	c #B9BCC3",
"_.	c #BE949C",
":.	c #C75860",
"<.	c #CC343D",
"[.	c #CF242C",
"}.	c #CB353E",
"|.	c #C75861",
"1.	c #BF959C",
"2.	c #B8BBC2",
"3.	c #B7BAC1",
"4.	c #B6B9C0",
"5.	c #B5B8BF",
". . . . . . . . . . . . . . . . . . . . . . . + ",
"@ @ @ @ @ @ @ @ @ @ @ @ @ @ @ @ @ @ @ @ @ @ @ @ ",
"# # # # # # # # # # # # # # # # # # # # # # # # ",
"$ $ $ $ $ $ $ $ $ $ $ $ $ $ $ $ $ $ $ $ $ $ $ $ ",
"% % % % % % % % & * = - ; = > , % % % % % % % % ",
"' ' ' ' ' ' ) ! ~ ~ ~ ~ ~ ~ ~ ~ { ] ' ' ' ' ' ' ",
"^ ^ ^ ^ ^ / ( ~ ~ ~ ~ ~ ~ ~ ~ ~ ~ _ : ^ ^ ^ ^ ^ ",
"< < < < [ } ~ ~ ~ ~ ~ ~ ~ ~ ~ ~ ~ ~ } | < < < < ",
"1 1 1 + 2 3 3 3 3 4 3 3 3 3 4 3 3 3 3 5 1 1 1 1 ",
"6 6 6 7 3 3 3 3 8 9 0 3 3 a b c 3 3 3 3 d 6 6 6 ",
"e e e f g g g h i j k l m n j o p g g g q e e e ",
"r r r s t t t t u 9 j v v j w x t t t t y r r r ",
"z z z A t t t t t m b j j i B t t t t t C z z z ",
"D D D E t t t t t F G j j v l t t t t t H D D D ",
"I I I J t t t t K L j 9 M j k N t t t t y I I I ",
"O O O P Q Q Q R v j S T U 9 j i V Q Q Q W O O O ",
"X X X Y Q Q Q Q Z `  .Q Q ..9 +.Q Q Q Q @.X X X ",
"#.#.#.#.$.Q Q Q Q p Q Q Q Q %.Q Q Q Q &.#.#.#.#.",
"*.*.*.*.=.-.;.;.;.;.;.;.;.;.;.;.;.;.>.=.*.*.*.*.",
",.,.,.,.,.'.).;.;.;.;.;.;.;.;.;.;.).!.,.,.,.,.,.",
"~.~.~.~.~.~.{.].;.;.;.;.;.;.;.;.^./.~.~.~.~.~.~.",
"(.(.(.(.(.(.(.(._.:.<.[.[.}.|.1.(.(.(.(.(.(.(.(.",
"2.2.2.2.2.2.2.2.2.2.2.2.2.2.2.2.2.2.2.2.2.2.2.2.",
"3.3.3.3.3.3.3.3.3.3.3.3.3.3.3.3.3.3.3.3.3.3.3.3.",
"4.4.4.4.4.4.4.4.4.4.4.4.4.4.4.4.4.4.4.4.4.4.4.4.",
"5.5.5.5.5.5.5.5.5.5.5.5.5.5.5.5.5.5.5.5.5.5.5.5."};
