/* XPM */
static char * menu_active_xpm[] = {
"24 26 32 1",
" 	c None",
".	c #CED1D8",
"+	c #CDD0D7",
"@	c #CCCFD6",
"#	c #CBCED5",
"$	c #CACDD4",
"%	c #C9CCD3",
"&	c #C8CBD2",
"*	c #C7CAD1",
"=	c #C6C9D0",
"-	c #C5C8CF",
";	c #C4C7CE",
">	c #C3C6CD",
",	c #C2C5CC",
"'	c #5A5A5A",
")	c #C1C4CB",
"!	c #6A6A6A",
"~	c #C0C3CA",
"{	c #7B7B7B",
"]	c #7B7A7B",
"^	c #BFC2C9",
"/	c #8C8C8C",
"(	c #BEC1C8",
"_	c #BDC0C7",
":	c #BCBFC6",
"<	c #BBBEC5",
"[	c #BABDC4",
"}	c #B9BCC3",
"|	c #B8BBC2",
"1	c #B7BAC1",
"2	c #B6B9C0",
"3	c #B5B8BF",
"........................",
"++++++++++++++++++++++++",
"@@@@@@@@@@@@@@@@@@@@@@@@",
"########################",
"$$$$$$$$$$$$$$$$$$$$$$$$",
"%%%%%%%%%%%%%%%%%%%%%%%%",
"&&&&&&&&&&&&&&&&&&&&&&&&",
"************************",
"========================",
"------------------------",
";;;;;;;;;;;;;;;;;;;;;;;;",
">>>>>>>>>>>>>>>>>>>>>>>>",
",,,,,,,,'''''''',,,,,,,,",
")))))))))!!!!!!)))))))))",
"~~~~~~~~~~{{]{~~~~~~~~~~",
"^^^^^^^^^^^//^^^^^^^^^^^",
"((((((((((((((((((((((((",
"________________________",
"::::::::::::::::::::::::",
"<<<<<<<<<<<<<<<<<<<<<<<<",
"[[[[[[[[[[[[[[[[[[[[[[[[",
"}}}}}}}}}}}}}}}}}}}}}}}}",
"||||||||||||||||||||||||",
"111111111111111111111111",
"222222222222222222222222",
"333333333333333333333333"};
