/* XPM */
static char * close_pressed_xpm[] = {
"24 26 108 2",
"  	c None",
". 	c #CED1D8",
"+ 	c #C6C8CF",
"@ 	c #CDD0D7",
"# 	c #CCCFD6",
"$ 	c #CBCED5",
"% 	c #CACDD4",
"& 	c #999BA0",
"* 	c #4C4C4F",
"= 	c #222122",
"- 	c #060404",
"; 	c #0F0E0E",
"> 	c #4D4D50",
", 	c #979A9F",
"' 	c #C9CCD3",
") 	c #ADB0B6",
"! 	c #343234",
"~ 	c #020000",
"{ 	c #323132",
"] 	c #ADAFB5",
"^ 	c #C8CBD2",
"/ 	c #9B9DA2",
"( 	c #0C0A0B",
"_ 	c #0E0C0C",
": 	c #9C9EA4",
"< 	c #C7CAD1",
"[ 	c #AAADB3",
"} 	c #0D0B0B",
"| 	c #ACAFB5",
"1 	c #C6C9D0",
"2 	c #C5C8CF",
"3 	c #312F31",
"4 	c #333233",
"5 	c #939499",
"6 	c #4C4B4B",
"7 	c #C5C5C5",
"8 	c #262424",
"9 	c #1D1B1B",
"0 	c #BFBEBE",
"a 	c #5F5E5E",
"b 	c #96989D",
"c 	c #C4C7CE",
"d 	c #4B4B4E",
"e 	c #C6C6C6",
"f 	c #DADADA",
"g 	c #C3C3C3",
"h 	c #201E1E",
"i 	c #1E1C1C",
"j 	c #C0C0C0",
"k 	c #CCCCCC",
"l 	c #151313",
"m 	c #C3C6CD",
"n 	c #201E1F",
"o 	c #C0BFBF",
"p 	c #CACACA",
"q 	c #2E2C2C",
"r 	c #242223",
"s 	c #C2C5CC",
"t 	c #0A0808",
"u 	c #292727",
"v 	c #0B090A",
"w 	c #C1C4CB",
"x 	c #090707",
"y 	c #191717",
"z 	c #BAB9B9",
"A 	c #C0C3CA",
"B 	c #211F20",
"C 	c #BDBCBC",
"D 	c #C1C1C1",
"E 	c #242222",
"F 	c #242224",
"G 	c #BFC2C9",
"H 	c #49494C",
"I 	c #C9C9C9",
"J 	c #282626",
"K 	c #222020",
"L 	c #BEC1C8",
"M 	c #909297",
"N 	c #616060",
"O 	c #CDCDCD",
"P 	c #232121",
"Q 	c #757474",
"R 	c #92949A",
"S 	c #BDC0C7",
"T 	c #161414",
"U 	c #171515",
"V 	c #313133",
"W 	c #BCBFC6",
"X 	c #A2A5AB",
"Y 	c #0D0B0C",
"Z 	c #BBBEC5",
"` 	c #919499",
" .	c #93959B",
"..	c #BABDC4",
"+.	c #A0A2A8",
"@.	c #302F30",
"#.	c #302F31",
"$.	c #B9BCC3",
"%.	c #8C8E94",
"&.	c #48484B",
"*.	c #212021",
"=.	c #0E0D0D",
"-.	c #222022",
";.	c #8D8F94",
">.	c #B8BBC2",
",.	c #B7BAC1",
"'.	c #B6B9C0",
").	c #B5B8BF",
". . . . . . . . . . . . . . . . . . . . . . . + ",
"@ @ @ @ @ @ @ @ @ @ @ @ @ @ @ @ @ @ @ @ @ @ @ @ ",
"# # # # # # # # # # # # # # # # # # # # # # # # ",
"$ $ $ $ $ $ $ $ $ $ $ $ $ $ $ $ $ $ $ $ $ $ $ $ ",
"% % % % % % % % & * = - ; = > , % % % % % % % % ",
"' ' ' ' ' ' ) ! ~ ~ ~ ~ ~ ~ ~ ~ { ] ' ' ' ' ' ' ",
"^ ^ ^ ^ ^ / ( ~ ~ ~ ~ ~ ~ ~ ~ ~ ~ _ : ^ ^ ^ ^ ^ ",
"< < < < [ } ~ ~ ~ ~ ~ ~ ~ ~ ~ ~ ~ ~ } | < < < < ",
"1 1 1 2 3 ~ ~ ~ ~ } ~ ~ ~ ~ } ~ ~ ~ ~ 4 1 1 1 1 ",
"2 2 2 5 ~ ~ ~ ~ 6 7 8 ~ ~ 9 0 a ~ ~ ~ ~ b 2 2 2 ",
"c c c d ~ ~ ~ _ e f g h i j f k l ~ ~ ~ * c c c ",
"m m m n ~ ~ ~ ~ 8 7 f o o f p q ~ ~ ~ ~ r m m m ",
"s s s t ~ ~ ~ ~ ~ i 0 f f e u ~ ~ ~ ~ ~ v s s s ",
"w w w x ~ ~ ~ ~ ~ y z f f o h ~ ~ ~ ~ ~ } w w w ",
"A A A B ~ ~ ~ ~ 9 C f 7 D f g E ~ ~ ~ ~ F A A A ",
"G G G H ~ ~ ~ _ o f I J K 7 f e l ~ ~ ~ d G G G ",
"L L L M ~ ~ ~ ~ N O q ~ ~ P 7 Q ~ ~ ~ ~ R L L L ",
"S S S S 3 ~ ~ ~ ~ T ~ ~ ~ ~ U ~ ~ ~ ~ V S S S S ",
"W W W W X ( ~ ~ ~ ~ ~ ~ ~ ~ ~ ~ ~ ~ Y X W W W W ",
"Z Z Z Z Z ` Y ~ ~ ~ ~ ~ ~ ~ ~ ~ ~ Y  .Z Z Z Z Z ",
"............+.@.~ ~ ~ ~ ~ ~ ~ ~ #.X ............",
"$.$.$.$.$.$.$.$.%.&.*.=.=.-.H ;.$.$.$.$.$.$.$.$.",
">.>.>.>.>.>.>.>.>.>.>.>.>.>.>.>.>.>.>.>.>.>.>.>.",
",.,.,.,.,.,.,.,.,.,.,.,.,.,.,.,.,.,.,.,.,.,.,.,.",
"'.'.'.'.'.'.'.'.'.'.'.'.'.'.'.'.'.'.'.'.'.'.'.'.",
").).).).).).).).).).).).).).).).).).).).).).).)."};
