/* XPM */
static char * hide_prelight_xpm[] = {
"24 26 73 1",
" 	c None",
".	c #CED1D8",
"+	c #CDD0D7",
"@	c #CCCFD6",
"#	c #CBCED5",
"$	c #CACDD4",
"%	c #C9CCD3",
"&	c #D2D5DA",
"*	c #E8E9EC",
"=	c #F5F6F7",
"-	c #FEFEFE",
";	c #FDFDFD",
">	c #F6F6F7",
",	c #D2D5DB",
"'	c #C8CBD2",
")	c #E7E9EC",
"!	c #FFFFFF",
"~	c #CACDD3",
"{	c #C7CAD1",
"]	c #F0F1F3",
"^	c #F0F0F2",
"/	c #C9CCD2",
"(	c #C6C9D0",
"_	c #E7E9EB",
":	c #E6E7EA",
"<	c #C5C8CF",
"[	c #CFD2D7",
"}	c #CFD1D7",
"|	c #C4C7CE",
"1	c #C3C6CD",
"2	c #F5F5F7",
"3	c #FBFBFB",
"4	c #E8E8E8",
"5	c #F8F8F8",
"6	c #F4F4F6",
"7	c #C2C5CC",
"8	c #E1E1E1",
"9	c #696969",
"0	c #CDCDCD",
"a	c #FCFCFD",
"b	c #C1C4CB",
"c	c #E4E4E4",
"d	c #7A7A7A",
"e	c #797979",
"f	c #D2D2D2",
"g	c #FCFCFC",
"h	c #C0C3CA",
"i	c #F3F3F5",
"j	c #BFC2C9",
"k	c #E4E5E8",
"l	c #E3E4E7",
"m	c #BEC1C8",
"n	c #C9CBD1",
"o	c #FEFFFF",
"p	c #C8CBD1",
"q	c #BDC0C7",
"r	c #E2E4E7",
"s	c #E2E3E6",
"t	c #BCBFC6",
"u	c #EDEDEF",
"v	c #ECEDEF",
"w	c #BBBEC5",
"x	c #FEFEFF",
"y	c #E1E2E5",
"z	c #BABDC4",
"A	c #C5C8CE",
"B	c #F2F3F4",
"C	c #FAFBFB",
"D	c #B9BCC3",
"E	c #B8BBC2",
"F	c #B7BAC1",
"G	c #B6B9C0",
"H	c #B5B8BF",
"........................",
"++++++++++++++++++++++++",
"@@@@@@@@@@@@@@@@@@@@@@@@",
"########################",
"$$$$$$$$$$$$$$$$$$$$$$$$",
"%%%%%%%%&*=-;>*,%%%%%%%%",
"''''''$)!!!!!!!!)~''''''",
"{{{{{%]!!!!!!!!!!^/{{{{{",
"(((((_!!!!!!!!!!!!:(((((",
"<<<<[!!!!!!!!!!!!!!}<<<<",
"||||:!!!!!!!!!!!!!!:||||",
"11112!!3444444445!!61111",
"7777;!!8999999990!!a7777",
"bbbb;!!cdddddeeef!!gbbbb",
"hhhh6!!!!!!!!!!!!!!ihhhh",
"jjjjk!!!!!!!!!!!!!!ljjjj",
"mmmmno!!!!!!!!!!!!opmmmm",
"qqqqqr!!!!!!!!!!!!sqqqqq",
"tttttmu!!!!!!!!!!vmttttt",
"wwwwwwqsx!!!!!!xyqwwwwww",
"zzzzzzzzAyBCCByAzzzzzzzz",
"DDDDDDDDDDDDDDDDDDDDDDDD",
"EEEEEEEEEEEEEEEEEEEEEEEE",
"FFFFFFFFFFFFFFFFFFFFFFFF",
"GGGGGGGGGGGGGGGGGGGGGGGG",
"HHHHHHHHHHHHHHHHHHHHHHHH"};
