/* XPM */
static char * shade_pressed_xpm[] = {
"24 26 94 2",
"  	c None",
". 	c #CED1D8",
"+ 	c #CDD0D7",
"@ 	c #CCCFD6",
"# 	c #CBCED5",
"$ 	c #CACDD4",
"% 	c #C9CCD3",
"& 	c #AEB1B7",
"* 	c #6E7074",
"= 	c #47484A",
"- 	c #2E2E30",
"; 	c #313233",
"> 	c #ADB0B6",
", 	c #C8CBD2",
"' 	c #C3C5CC",
") 	c #6F7074",
"! 	c #2D2D2F",
"~ 	c #2B2C2D",
"{ 	c #6E6F73",
"] 	c #C3C6CD",
"^ 	c #C7CAD1",
"/ 	c #C2C4CB",
"( 	c #545659",
"_ 	c #56575A",
": 	c #C2C5CC",
"< 	c #C6C9D0",
"[ 	c #6B6D71",
"} 	c #2B2B2D",
"| 	c #6F7175",
"1 	c #C5C8CF",
"2 	c #AAADB3",
"3 	c #2A2B2D",
"4 	c #9F9F9F",
"5 	c #2C2D2E",
"6 	c #ACAEB4",
"7 	c #C4C7CE",
"8 	c #6C6D71",
"9 	c #2A2B2C",
"0 	c #8E8F8F",
"a 	c #8E8E8E",
"b 	c #8E8D8E",
"c 	c #6C6E72",
"d 	c #444548",
"e 	c #292A2B",
"f 	c #7D7D7C",
"g 	c #7C7C7D",
"h 	c #7C7C7C",
"i 	c #7B7B7B",
"j 	c #46474A",
"k 	c #2F3032",
"l 	c #2A2A2C",
"m 	c #6B6B6B",
"n 	c #6B6B6A",
"o 	c #6B6A6A",
"p 	c #6A6A6A",
"q 	c #696969",
"r 	c #686969",
"s 	c #313133",
"t 	c #C1C4CB",
"u 	c #2F3031",
"v 	c #313234",
"w 	c #C0C3CA",
"x 	c #444547",
"y 	c #292A2C",
"z 	c #5A5A5A",
"A 	c #BFC2C9",
"B 	c #696B6E",
"C 	c #6A6C70",
"D 	c #BEC1C8",
"E 	c #A5A7AD",
"F 	c #A6A9AF",
"G 	c #BDC0C7",
"H 	c #696B6F",
"I 	c #29292B",
"J 	c #6B6C70",
"K 	c #BCBFC6",
"L 	c #B8BBC1",
"M 	c #515255",
"N 	c #525356",
"O 	c #BBBEC5",
"P 	c #B7BAC0",
"Q 	c #67696D",
"R 	c #28292A",
"S 	c #6A6B6F",
"T 	c #BABDC4",
"U 	c #A2A5AB",
"V 	c #68696D",
"W 	c #434447",
"X 	c #323234",
"Y 	c #B9BCC3",
"Z 	c #B8BBC2",
"` 	c #B7BAC1",
" .	c #B6B9C0",
"..	c #B5B8BF",
". . . . . . . . . . . . . . . . . . . . . . . . ",
"+ + + + + + + + + + + + + + + + + + + + + + + + ",
"@ @ @ @ @ @ @ @ @ @ @ @ @ @ @ @ @ @ @ @ @ @ @ @ ",
"# # # # # # # # # # # # # # # # # # # # # # # # ",
"$ $ $ $ $ $ $ $ $ $ $ $ $ $ $ $ $ $ $ $ $ $ $ $ ",
"% % % % % % % % & * = - ; = * > % % % % % % % % ",
", , , , , , ' ) ! ~ ~ ~ ~ ~ ~ ! { ] , , , , , , ",
"^ ^ ^ ^ ^ / ( ~ ~ ~ ~ ~ ~ ~ ~ ~ ~ _ : ^ ^ ^ ^ ^ ",
"< < < < < [ } } } } } } } } } } } } | < < < < < ",
"1 1 1 1 2 ~ 3 3 3 3 3 4 4 3 3 3 3 3 5 6 1 1 1 1 ",
"7 7 7 7 8 9 9 9 9 9 0 0 a b 9 9 9 9 9 c 7 7 7 7 ",
"] ] ] ] d 9 9 e e f g h h i i e e 9 9 j ] ] ] ] ",
": : : : k l l e m n o p p p q r e l l s : : : : ",
"t t t t u l l e e e e e e e e e e l l v t t t t ",
"w w w w x y y y z z z z z z z z y y y j w w w w ",
"A A A A B e e e z z z z z z z z e e e C A A A A ",
"D D D D E 3 e e e e e e e e e e e e 3 F D D D D ",
"G G G G G H I I I I I I I I I I I I J G G G G G ",
"K K K K K L M I I I I I I I I I I N L K K K K K ",
"O O O O O O P Q l R R R R R R l S P O O O O O O ",
"T T T T T T T T U V W X X x V U T T T T T T T T ",
"Y Y Y Y Y Y Y Y Y Y Y Y Y Y Y Y Y Y Y Y Y Y Y Y ",
"Z Z Z Z Z Z Z Z Z Z Z Z Z Z Z Z Z Z Z Z Z Z Z Z ",
"` ` ` ` ` ` ` ` ` ` ` ` ` ` ` ` ` ` ` ` ` ` ` ` ",
" . . . . . . . . . . . . . . . . . . . . . . . .",
"................................................"};
