/* XPM */
static char * stick_prelight_xpm[] = {
"24 26 87 1",
" 	c None",
".	c #CED1D8",
"+	c #CDD0D7",
"@	c #CCCFD6",
"#	c #CBCED5",
"$	c #CACDD4",
"%	c #C9CCD3",
"&	c #D2D5DA",
"*	c #E8E9EB",
"=	c #F5F6F5",
"-	c #FEFEFC",
";	c #FDFDFB",
">	c #F6F6F5",
",	c #D2D5DB",
"'	c #C8CBD2",
")	c #E7E9EB",
"!	c #FFFFFD",
"~	c #CACDD3",
"{	c #C7CAD1",
"]	c #F0F1F2",
"^	c #F0F0F1",
"/	c #C9CCD2",
"(	c #C6C9D0",
"_	c #E7E9EA",
":	c #E6E7E9",
"<	c #C5C8CF",
"[	c #CFD2D7",
"}	c #CFD1D7",
"|	c #C4C7CE",
"1	c #9F9F9E",
"2	c #666767",
"3	c #676766",
"4	c #C3C6CD",
"5	c #F5F5F5",
"6	c #A6A6A5",
"7	c #666666",
"8	c #F4F4F4",
"9	c #C2C5CC",
"0	c #7C7C7B",
"a	c #727272",
"b	c #717272",
"c	c #727172",
"d	c #7C7B7C",
"e	c #FCFCFB",
"f	c #C1C4CB",
"g	c #868686",
"h	c #7D7D7D",
"i	c #7D7E7D",
"j	c #7E7D7D",
"k	c #878686",
"l	c #FCFCFA",
"m	c #C0C3CA",
"n	c #BAB9B9",
"o	c #898889",
"p	c #898989",
"q	c #888988",
"r	c #BABAB9",
"s	c #F3F3F3",
"t	c #BFC2C9",
"u	c #E4E5E7",
"v	c #C1C1C0",
"w	c #9B9B9B",
"x	c #9B9C9B",
"y	c #C0C0C0",
"z	c #E3E4E6",
"A	c #BEC1C8",
"B	c #C9CBD1",
"C	c #FEFFFD",
"D	c #C8CBD1",
"E	c #BDC0C7",
"F	c #E2E4E6",
"G	c #E2E3E5",
"H	c #BCBFC6",
"I	c #EDEDEE",
"J	c #ECEDEE",
"K	c #BBBEC5",
"L	c #FEFEFD",
"M	c #E1E2E4",
"N	c #BABDC4",
"O	c #C5C8CE",
"P	c #F2F3F2",
"Q	c #FAFBF9",
"R	c #B9BCC3",
"S	c #B8BBC2",
"T	c #B7BAC1",
"U	c #B6B9C0",
"V	c #B5B8BF",
"........................",
"++++++++++++++++++++++++",
"@@@@@@@@@@@@@@@@@@@@@@@@",
"########################",
"$$$$$$$$$$$$$$$$$$$$$$$$",
"%%%%%%%%&*=-;>*,%%%%%%%%",
"''''''$)!!!!!!!!)~''''''",
"{{{{{%]!!!!!!!!!!^/{{{{{",
"(((((_!!!!!!!!!!!!:(((((",
"<<<<[!!!!!!!!!!!!!!}<<<<",
"||||:!!!!!1231!!!!!:||||",
"44445!!!!677776!!!!84444",
"9999;!!!!0aabcd!!!!e9999",
"ffff;!!!!ghijhk!!!!lffff",
"mmmm8!!!!noppqr!!!!smmmm",
"ttttu!!!!!vwxy!!!!!ztttt",
"AAAABC!!!!!!!!!!!!CDAAAA",
"EEEEEF!!!!!!!!!!!!GEEEEE",
"HHHHHAI!!!!!!!!!!JAHHHHH",
"KKKKKKEGL!!!!!!LMEKKKKKK",
"NNNNNNNNOMPQQPMONNNNNNNN",
"RRRRRRRRRRRRRRRRRRRRRRRR",
"SSSSSSSSSSSSSSSSSSSSSSSS",
"TTTTTTTTTTTTTTTTTTTTTTTT",
"UUUUUUUUUUUUUUUUUUUUUUUU",
"VVVVVVVVVVVVVVVVVVVVVVVV"};
