/* XPM */
static char * maximize_pressed_xpm[] = {
"24 26 97 2",
"  	c None",
". 	c #CED1D8",
"+ 	c #CDD0D7",
"@ 	c #CCCFD6",
"# 	c #CBCED5",
"$ 	c #CACDD4",
"% 	c #C9CCD3",
"& 	c #AEB1B7",
"* 	c #6E7074",
"= 	c #47484A",
"- 	c #2E2E30",
"; 	c #313233",
"> 	c #ADB0B6",
", 	c #C8CBD2",
"' 	c #C3C5CC",
") 	c #6F7074",
"! 	c #2D2D2F",
"~ 	c #2B2C2D",
"{ 	c #6E6F73",
"] 	c #C3C6CD",
"^ 	c #C7CAD1",
"/ 	c #C2C4CB",
"( 	c #545659",
"_ 	c #56575A",
": 	c #C2C5CC",
"< 	c #C6C9D0",
"[ 	c #6B6D71",
"} 	c #2B2B2D",
"| 	c #2C2C2E",
"1 	c #525254",
"2 	c #2F3031",
"3 	c #6F7175",
"4 	c #C5C8CF",
"5 	c #AAADB3",
"6 	c #2A2B2D",
"7 	c #303032",
"8 	c #D1D1D2",
"9 	c #3B3C3D",
"0 	c #2C2D2E",
"a 	c #ACAEB4",
"b 	c #C4C7CE",
"c 	c #6C6D71",
"d 	c #2A2B2C",
"e 	c #6C6E72",
"f 	c #444548",
"g 	c #353537",
"h 	c #404142",
"i 	c #46474A",
"j 	c #2F3032",
"k 	c #2A2A2C",
"l 	c #515253",
"m 	c #5C5C5E",
"n 	c #313133",
"o 	c #C1C4CB",
"p 	c #5C5C5D",
"q 	c #313234",
"r 	c #C0C3CA",
"s 	c #444547",
"t 	c #292A2C",
"u 	c #3A3B3C",
"v 	c #3F3F41",
"w 	c #494A4B",
"x 	c #BFC2C9",
"y 	c #696B6E",
"z 	c #292A2B",
"A 	c #2E2F31",
"B 	c #D1D1D1",
"C 	c #6A6C70",
"D 	c #BEC1C8",
"E 	c #A5A7AD",
"F 	c #2E2F30",
"G 	c #A6A9AF",
"H 	c #BDC0C7",
"I 	c #696B6F",
"J 	c #29292B",
"K 	c #5B5C5D",
"L 	c #2D2E2F",
"M 	c #6B6C70",
"N 	c #BCBFC6",
"O 	c #B8BBC1",
"P 	c #515255",
"Q 	c #525356",
"R 	c #BBBEC5",
"S 	c #B7BAC0",
"T 	c #67696D",
"U 	c #28292A",
"V 	c #6A6B6F",
"W 	c #BABDC4",
"X 	c #A2A5AB",
"Y 	c #68696D",
"Z 	c #434447",
"` 	c #323234",
" .	c #B9BCC3",
"..	c #B8BBC2",
"+.	c #B7BAC1",
"@.	c #B6B9C0",
"#.	c #B5B8BF",
". . . . . . . . . . . . . . . . . . . . . . . . ",
"+ + + + + + + + + + + + + + + + + + + + + + + + ",
"@ @ @ @ @ @ @ @ @ @ @ @ @ @ @ @ @ @ @ @ @ @ @ @ ",
"# # # # # # # # # # # # # # # # # # # # # # # # ",
"$ $ $ $ $ $ $ $ $ $ $ $ $ $ $ $ $ $ $ $ $ $ $ $ ",
"% % % % % % % % & * = - ; = * > % % % % % % % % ",
", , , , , , ' ) ! ~ ~ ~ ~ ~ ~ ! { ] , , , , , , ",
"^ ^ ^ ^ ^ / ( ~ ~ ~ ~ ~ ~ ~ ~ ~ ~ _ : ^ ^ ^ ^ ^ ",
"< < < < < [ } } } } | 1 1 2 } } } } 3 < < < < < ",
"4 4 4 4 5 ~ 6 6 6 6 7 8 8 9 6 6 6 6 0 a 4 4 4 4 ",
"b b b b c d d d d d 7 8 8 9 d d d d d e b b b b ",
"] ] ] ] f d d 0 7 7 g 8 8 h 7 7 0 d d i ] ] ] ] ",
": : : : j k k l 8 8 8 8 8 8 8 8 m k k n : : : : ",
"o o o o 2 k k l 8 8 8 8 8 8 8 8 p k k q o o o o ",
"r r r r s t t - u u v 8 8 w u u - t t i r r r r ",
"x x x x y z z z z z A B B u z z z z z C x x x x ",
"D D D D E 6 z z z z F B B u z z z z 6 G D D D D ",
"H H H H H I J J J J } K K L J J J J M H H H H H ",
"N N N N N O P J J J J J J J J J J Q O N N N N N ",
"R R R R R R S T k U U U U U U k V S R R R R R R ",
"W W W W W W W W X Y Z ` ` s Y X W W W W W W W W ",
" . . . . . . . . . . . . . . . . . . . . . . . .",
"................................................",
"+.+.+.+.+.+.+.+.+.+.+.+.+.+.+.+.+.+.+.+.+.+.+.+.",
"@.@.@.@.@.@.@.@.@.@.@.@.@.@.@.@.@.@.@.@.@.@.@.@.",
"#.#.#.#.#.#.#.#.#.#.#.#.#.#.#.#.#.#.#.#.#.#.#.#."};
