/* XPM */
static char * maximize_prelight_xpm[] = {
"24 26 85 1",
" 	c None",
".	c #CED1D8",
"+	c #CDD0D7",
"@	c #CCCFD6",
"#	c #CBCED5",
"$	c #CACDD4",
"%	c #C9CCD3",
"&	c #D2D5DA",
"*	c #E8E9EB",
"=	c #F5F6F5",
"-	c #FEFEFC",
";	c #FDFDFB",
">	c #F6F6F5",
",	c #D2D5DB",
"'	c #C8CBD2",
")	c #E7E9EB",
"!	c #FFFFFD",
"~	c #CACDD3",
"{	c #C7CAD1",
"]	c #F0F1F2",
"^	c #F0F0F1",
"/	c #C9CCD2",
"(	c #C6C9D0",
"_	c #E7E9EA",
":	c #D5D5D3",
"<	c #FBFBF9",
"[	c #E6E7E9",
"}	c #C5C8CF",
"|	c #CFD2D7",
"1	c #F9F9F7",
"2	c #4C4C4B",
"3	c #EDEDEB",
"4	c #CFD1D7",
"5	c #C4C7CE",
"6	c #C3C6CD",
"7	c #F5F5F5",
"8	c #FAFAF8",
"9	c #F5F5F3",
"0	c #575756",
"a	c #E8E8E6",
"b	c #F4F4F4",
"c	c #C2C5CC",
"d	c #DBDBD9",
"e	c #676766",
"f	c #D1D1CF",
"g	c #FCFCFB",
"h	c #C1C4CB",
"i	c #E0E0DE",
"j	c #787877",
"k	c #D6D6D4",
"l	c #FCFCFA",
"m	c #C0C3CA",
"n	c #F3F3F1",
"o	c #F0F0EE",
"p	c #888887",
"q	c #E9E9E7",
"r	c #F3F3F3",
"s	c #BFC2C9",
"t	c #E4E5E7",
"u	c #929291",
"v	c #F4F4F2",
"w	c #E3E4E6",
"x	c #BEC1C8",
"y	c #C9CBD1",
"z	c #FEFFFD",
"A	c #C8CBD1",
"B	c #BDC0C7",
"C	c #E2E4E6",
"D	c #DEDEDC",
"E	c #E2E3E5",
"F	c #BCBFC6",
"G	c #EDEDEE",
"H	c #ECEDEE",
"I	c #BBBEC5",
"J	c #FEFEFD",
"K	c #E1E2E4",
"L	c #BABDC4",
"M	c #C5C8CE",
"N	c #F2F3F2",
"O	c #FAFBF9",
"P	c #B9BCC3",
"Q	c #B8BBC2",
"R	c #B7BAC1",
"S	c #B6B9C0",
"T	c #B5B8BF",
"........................",
"++++++++++++++++++++++++",
"@@@@@@@@@@@@@@@@@@@@@@@@",
"########################",
"$$$$$$$$$$$$$$$$$$$$$$$$",
"%%%%%%%%&*=-;>*,%%%%%%%%",
"''''''$)!!!!!!!!)~''''''",
"{{{{{%]!!!!!!!!!!^/{{{{{",
"(((((_!!!!-::<!!!![(((((",
"}}}}|!!!!!1223!!!!!4}}}}",
"5555[!!!!!1223!!!!![5555",
"66667!!-88900a88-!!b6666",
"cccc;!!deeeeeeeef!!gcccc",
"hhhh;!!ijjjjjjjjk!!lhhhh",
"mmmmb!!lnnoppqnn<!!rmmmm",
"sssst!!!!!<uuv!!!!!wssss",
"xxxxyz!!!!<uuv!!!!zAxxxx",
"BBBBBC!!!!!DDl!!!!EBBBBB",
"FFFFFxG!!!!!!!!!!HxFFFFF",
"IIIIIIBEJ!!!!!!JKBIIIIII",
"LLLLLLLLMKNOONKMLLLLLLLL",
"PPPPPPPPPPPPPPPPPPPPPPPP",
"QQQQQQQQQQQQQQQQQQQQQQQQ",
"RRRRRRRRRRRRRRRRRRRRRRRR",
"SSSSSSSSSSSSSSSSSSSSSSSS",
"TTTTTTTTTTTTTTTTTTTTTTTT"};
