/* XPM */
static char * shade_prelight_xpm[] = {
"24 26 82 1",
" 	c None",
".	c #CED1D8",
"+	c #CDD0D7",
"@	c #CCCFD6",
"#	c #CBCED5",
"$	c #CACDD4",
"%	c #C9CCD3",
"&	c #D2D5DA",
"*	c #E8E9EB",
"=	c #F5F6F5",
"-	c #FEFEFC",
";	c #FDFDFB",
">	c #F6F6F5",
",	c #D2D5DB",
"'	c #C8CBD2",
")	c #E7E9EB",
"!	c #FFFFFD",
"~	c #CACDD3",
"{	c #C7CAD1",
"]	c #F0F1F2",
"^	c #F0F0F1",
"/	c #C9CCD2",
"(	c #C6C9D0",
"_	c #E7E9EA",
":	c #E6E7E9",
"<	c #C5C8CF",
"[	c #CFD2D7",
"}	c #5A5A5A",
"|	c #CFD1D7",
"1	c #C4C7CE",
"2	c #646464",
"3	c #C3C6CD",
"4	c #F5F5F5",
"5	c #6E6F6E",
"6	c #6E6E6E",
"7	c #6E6E6F",
"8	c #F4F4F4",
"9	c #C2C5CC",
"0	c #787878",
"a	c #797878",
"b	c #787978",
"c	c #787979",
"d	c #787879",
"e	c #FCFCFB",
"f	c #C1C4CB",
"g	c #FCFCFA",
"h	c #C0C3CA",
"i	c #8C8C8C",
"j	c #8C8D8C",
"k	c #8C8C8D",
"l	c #8D8C8C",
"m	c #8D8D8C",
"n	c #F3F3F3",
"o	c #BFC2C9",
"p	c #E4E5E7",
"q	c #979796",
"r	c #969697",
"s	c #969696",
"t	c #969796",
"u	c #E3E4E6",
"v	c #BEC1C8",
"w	c #C9CBD1",
"x	c #FEFFFD",
"y	c #C8CBD1",
"z	c #BDC0C7",
"A	c #E2E4E6",
"B	c #E2E3E5",
"C	c #BCBFC6",
"D	c #EDEDEE",
"E	c #ECEDEE",
"F	c #BBBEC5",
"G	c #FEFEFD",
"H	c #E1E2E4",
"I	c #BABDC4",
"J	c #C5C8CE",
"K	c #F2F3F2",
"L	c #FAFBF9",
"M	c #B9BCC3",
"N	c #B8BBC2",
"O	c #B7BAC1",
"P	c #B6B9C0",
"Q	c #B5B8BF",
"........................",
"++++++++++++++++++++++++",
"@@@@@@@@@@@@@@@@@@@@@@@@",
"########################",
"$$$$$$$$$$$$$$$$$$$$$$$$",
"%%%%%%%%&*=-;>*,%%%%%%%%",
"''''''$)!!!!!!!!)~''''''",
"{{{{{%]!!!!!!!!!!^/{{{{{",
"(((((_!!!!!!!!!!!!:(((((",
"<<<<[!!!!!!}}!!!!!!|<<<<",
"1111:!!!!!2222!!!!!:1111",
"33334!!!!566676!!!!83333",
"9999;!!!0aba0c0d!!!e9999",
"ffff;!!!!!!!!!!!!!!gffff",
"hhhh8!!!ijklmiii!!!nhhhh",
"oooop!!!qrststrs!!!uoooo",
"vvvvwx!!!!!!!!!!!!xyvvvv",
"zzzzzA!!!!!!!!!!!!Bzzzzz",
"CCCCCvD!!!!!!!!!!EvCCCCC",
"FFFFFFzBG!!!!!!GHzFFFFFF",
"IIIIIIIIJHKLLKHJIIIIIIII",
"MMMMMMMMMMMMMMMMMMMMMMMM",
"NNNNNNNNNNNNNNNNNNNNNNNN",
"OOOOOOOOOOOOOOOOOOOOOOOO",
"PPPPPPPPPPPPPPPPPPPPPPPP",
"QQQQQQQQQQQQQQQQQQQQQQQQ"};
